<?xml version="1.0" standalone="no"?>
<!DOCTYPE svg PUBLIC "-//W3C//DTD SVG 20010904//EN"
 "http://www.w3.org/TR/2001/REC-SVG-20010904/DTD/svg10.dtd">
<svg version="1.0" xmlns="http://www.w3.org/2000/svg"
 width="1280.000000pt" height="718.000000pt" viewBox="0 0 1280.000000 718.000000"
 preserveAspectRatio="xMidYMid meet">
<metadata>
Created by potrace 1.15, written by Peter Selinger 2001-2017
</metadata>
<g transform="translate(0.000000,718.000000) scale(0.100000,-0.100000)"
fill="#000000" stroke="none">
<path d="M4075 6229 c-4 -5 -13 -9 -22 -9 -9 0 -73 -35 -142 -78 -69 -44 -147
-91 -173 -106 l-48 -28 0 -88 c0 -94 10 -136 90 -367 24 -68 47 -123 52 -123
6 0 45 29 88 65 43 36 80 65 83 65 3 0 43 -52 87 -117 45 -64 130 -172 188
-241 59 -69 120 -140 135 -159 18 -21 34 -57 43 -96 31 -136 56 -196 88 -212
28 -14 32 -14 68 10 50 33 64 69 45 110 -16 34 -12 55 9 55 8 0 71 -27 140
-60 135 -65 182 -79 257 -80 l47 0 0 -65 c0 -36 -4 -65 -10 -65 -5 0 -18 -17
-27 -37 -14 -29 -26 -39 -54 -46 -20 -5 -51 -21 -69 -36 l-33 -28 22 -22 c30
-30 24 -51 -23 -77 -34 -19 -50 -21 -155 -18 -441 12 -462 11 -517 -47 -25
-26 -29 -39 -32 -102 -2 -40 0 -95 6 -124 6 -38 6 -55 -3 -65 -7 -7 -26 -50
-44 -94 -18 -45 -50 -112 -72 -150 -23 -38 -78 -143 -124 -234 -94 -185 -146
-260 -281 -401 -51 -53 -108 -120 -127 -150 -62 -97 -106 -137 -177 -161 -45
-16 -68 -30 -75 -46 -10 -22 -12 -22 -197 -22 -124 0 -196 -4 -213 -12 -58
-26 -55 27 -55 -1158 l0 -1092 29 -29 29 -29 1101 0 1100 0 28 24 28 24 3
1074 3 1073 32 15 c42 20 58 71 32 100 -13 15 -15 25 -8 47 8 22 25 35 77 57
l67 30 217 -18 c119 -10 245 -20 280 -23 l62 -6 0 -38 0 -39 -305 0 -305 0
-32 -29 -33 -29 -3 -1084 c-1 -596 0 -1094 3 -1106 3 -13 18 -35 32 -48 l26
-24 1099 0 1100 0 29 29 29 29 0 1102 0 1102 -29 29 c-28 28 -34 29 -117 29
-86 0 -87 0 -69 20 11 13 16 30 13 50 -3 16 -1 30 3 30 5 0 92 16 193 35 102
19 202 35 224 35 33 0 330 -42 388 -55 17 -4 20 -10 16 -34 -3 -23 2 -36 23
-55 l28 -26 -261 0 -262 0 -32 -29 -33 -29 -3 -1074 c-1 -590 0 -1088 3 -1107
4 -18 18 -44 32 -57 l26 -24 1099 0 1100 0 29 29 29 29 0 1101 0 1100 -24 28
c-23 27 -28 28 -136 31 -88 3 -109 6 -100 16 17 22 -26 64 -98 97 -36 16 -73
27 -81 24 -8 -3 -21 2 -30 12 -21 23 -53 101 -46 113 3 5 0 12 -6 16 -8 4 -9
3 -5 -4 4 -7 2 -12 -4 -12 -8 0 -8 -6 0 -22 10 -21 10 -21 -9 2 -11 13 -19 27
-19 30 2 20 -6 29 -32 39 -16 5 -30 15 -30 20 0 6 -6 11 -13 11 -13 0 -71 73
-109 136 -10 16 -23 38 -30 49 -7 11 -22 36 -35 56 l-22 37 99 65 99 66 -56
93 c-31 51 -132 230 -225 398 -93 168 -176 312 -184 321 -12 13 -13 29 -4 90
6 41 8 91 5 111 -8 42 -54 106 -93 127 -41 22 -162 8 -402 -44 -160 -35 -245
-48 -333 -52 -106 -5 -117 -4 -111 11 7 18 -46 45 -93 47 -21 1 -11 6 34 21
57 18 62 22 57 42 -4 18 -1 25 16 29 12 3 24 14 27 25 3 14 19 24 49 31 39 10
44 14 39 34 -32 141 -32 150 2 181 22 21 24 27 14 40 -7 8 -9 20 -5 27 10 16
13 131 3 149 -4 9 4 55 17 105 38 139 157 846 144 859 -7 7 -14 5 -22 -7 -14
-18 -88 -47 -121 -47 -11 0 -64 -14 -118 -30 -116 -36 -103 -3 -119 -303 l-11
-208 -42 -42 c-56 -55 -95 -126 -116 -212 -18 -70 -130 -307 -152 -320 -6 -4
-17 -21 -24 -38 l-13 -31 -38 44 c-97 112 -205 215 -265 256 -37 24 -74 54
-82 67 -8 12 -29 37 -46 55 -17 18 -31 44 -31 58 0 20 5 24 30 24 17 0 45 7
62 16 27 14 30 19 25 50 -3 18 -2 36 3 39 4 3 7 23 6 46 -2 30 2 43 16 50 26
14 22 35 -17 86 -26 34 -32 49 -24 59 7 9 5 30 -9 77 l-19 64 25 21 c20 18 22
25 12 37 -7 8 -17 15 -22 15 -5 0 -21 9 -36 20 -37 27 -163 71 -184 64 -10 -3
-18 -1 -18 5 0 16 -64 3 -78 -16 -11 -15 -14 -16 -22 -4 -7 13 -11 13 -26 0
-11 -9 -15 -9 -10 -1 4 6 2 12 -3 12 -6 0 -11 -6 -11 -12 -1 -7 -20 -22 -43
-33 -66 -32 -92 -87 -92 -200 0 -111 16 -170 61 -219 19 -20 34 -48 34 -61 0
-13 5 -27 10 -30 6 -3 10 -1 10 6 0 7 2 10 5 7 10 -10 -14 -56 -31 -60 -14 -2
-18 -15 -21 -57 -2 -30 -10 -62 -18 -71 -8 -9 -15 -23 -15 -30 0 -8 -5 -28
-12 -46 l-11 -32 -40 26 c-55 37 -155 43 -220 14 -50 -22 -64 -50 -53 -99 15
-65 132 -340 153 -361 13 -13 23 -35 23 -49 0 -33 18 -64 215 -368 89 -137
224 -347 299 -465 75 -118 153 -230 173 -248 33 -29 41 -32 87 -28 28 3 62 14
77 25 39 29 217 95 257 95 17 0 32 4 32 10 0 5 3 6 7 2 4 -4 8 -15 8 -24 0
-14 9 -17 47 -15 44 1 46 0 50 -29 4 -26 1 -32 -24 -40 -29 -10 -35 -22 -17
-34 8 -4 7 -9 -2 -15 -11 -8 -10 -12 5 -24 17 -13 18 -15 3 -15 -21 0 -22 -19
-2 -26 14 -6 13 -8 -2 -19 -17 -13 -17 -14 0 -20 16 -7 16 -8 1 -20 -16 -11
-16 -13 2 -23 10 -6 13 -12 7 -12 -7 0 -13 -6 -13 -14 0 -8 6 -17 13 -19 10
-4 10 -6 0 -6 -7 -1 -13 -7 -13 -15 0 -8 6 -17 13 -19 10 -4 10 -6 0 -6 -19
-1 -15 -29 5 -34 16 -4 16 -5 0 -6 -10 0 -18 -5 -18 -11 0 -5 8 -14 18 -19 16
-10 16 -10 0 -11 -10 0 -18 -3 -18 -6 0 -4 8 -13 18 -20 16 -13 16 -13 0 -14
-21 0 -24 -16 -5 -24 10 -5 10 -7 0 -12 -19 -8 -16 -24 5 -24 16 -1 16 -1 0
-14 -22 -16 -23 -26 -3 -26 8 0 15 -4 15 -10 0 -5 -7 -10 -15 -10 -22 0 -18
-17 5 -23 28 -7 25 -26 -7 -38 -14 -5 -159 -12 -322 -16 -239 -4 -299 -8 -313
-20 -12 -11 -17 -31 -17 -70 0 -51 4 -58 39 -94 57 -58 113 -50 126 18 6 30 3
39 -17 55 l-24 20 55 -6 c30 -3 71 -6 90 -7 l35 -1 -34 -12 c-35 -13 -56 -46
-47 -78 3 -12 -2 -18 -14 -18 -10 0 -26 -3 -35 -6 -19 -8 -48 -61 -40 -74 4
-7 -188 -10 -537 -10 l-544 0 -11 29 c-7 20 -20 31 -42 36 -28 6 -31 10 -31
45 0 54 -16 90 -39 90 -14 0 -18 5 -14 19 3 10 -1 29 -7 41 -12 22 -12 22
-278 19 -247 -4 -267 -3 -270 14 -2 10 3 17 12 17 21 0 20 17 -1 29 -17 10
-17 10 0 11 9 0 17 4 17 10 0 5 -8 14 -17 19 -17 10 -17 10 0 11 21 0 23 18 2
26 -14 6 -13 8 1 19 16 11 16 13 -2 23 -17 10 -17 11 -1 12 9 0 17 4 17 10 0
5 -8 14 -17 19 -17 10 -17 10 0 11 9 0 17 4 17 10 0 5 -8 14 -17 19 -17 10
-17 10 0 11 9 0 17 4 17 10 0 5 -8 14 -17 19 -10 6 -12 11 -5 11 6 0 12 6 12
14 0 8 -6 17 -12 19 -10 4 -10 6 0 6 15 1 16 31 0 31 -6 0 -3 6 8 14 18 14 18
15 1 21 -16 7 -16 8 -1 20 16 11 16 13 -2 23 -10 6 -13 12 -6 12 19 0 14 28
-5 33 -17 4 -17 5 0 6 9 0 17 8 17 16 0 8 -8 15 -17 15 -17 1 -17 1 0 11 25
15 21 27 -12 34 -27 6 -29 9 -27 53 1 47 1 47 45 58 25 6 47 17 50 25 13 39
30 43 180 44 80 0 159 -4 175 -9 19 -6 30 -5 35 3 4 6 15 9 24 6 11 -5 23 5
41 32 21 32 44 134 140 621 113 567 127 654 106 667 -6 4 -4 18 6 37 13 25 15
63 12 229 -3 187 -4 200 -24 220 -18 17 -33 21 -83 20 -71 -1 -120 -21 -156
-63 -73 -87 -78 -333 -8 -410 14 -16 13 -20 -10 -47 -34 -40 -116 -253 -163
-423 -24 -86 -42 -134 -48 -128 -5 5 -8 64 -6 132 4 162 5 168 19 203 7 16 10
40 8 52 -2 13 2 46 10 75 17 66 18 251 2 325 -7 31 -29 83 -50 117 -28 46 -34
64 -26 74 6 7 10 37 9 66 -2 69 -62 184 -142 270 -31 33 -70 84 -87 111 -88
139 -205 183 -320 121 -61 -33 -154 -120 -177 -164 -9 -17 -19 -52 -22 -76 -7
-47 -4 -52 69 -112 23 -19 25 -26 17 -54 -10 -36 -6 -50 16 -50 8 0 17 -8 21
-17 3 -10 16 -29 28 -43 13 -14 25 -34 27 -45 4 -21 34 -24 123 -10 32 5 46 2
65 -13 l24 -20 -31 -35 c-17 -19 -32 -40 -34 -46 -2 -6 -30 -18 -62 -26 -32
-8 -68 -22 -81 -31 -23 -14 -25 -14 -31 5 -7 22 -14 25 -52 21 -14 -1 -47 17
-80 42 -32 24 -87 62 -122 83 -79 48 -172 133 -202 183 -13 20 -36 54 -53 74
-17 21 -44 53 -59 73 -16 19 -50 48 -76 65 -28 19 -68 60 -99 103 -90 125
-225 232 -247 196z m3779 -734 c-9 -14 -19 -24 -21 -21 -7 7 16 46 28 46 5 0
2 -11 -7 -25z m-2932 -303 c41 -31 69 -45 100 -49 76 -8 88 -12 88 -33 0 -13
-7 -20 -20 -20 -13 0 -20 -7 -20 -18 0 -16 -7 -18 -62 -15 -64 4 -99 15 -130
41 -16 13 -16 17 -2 43 14 28 13 32 -17 76 -35 50 -35 50 63 -25z m2958 -17
c0 -47 -3 -85 -6 -85 -3 0 -25 14 -48 32 -22 17 -43 33 -45 35 -12 8 71 102
92 103 4 0 7 -38 7 -85z m470 -1160 c17 -9 30 -19 30 -23 -1 -23 -39 -125 -49
-132 -8 -4 -12 -24 -10 -51 5 -84 -43 -182 -120 -247 -51 -43 -111 -125 -111
-151 0 -20 89 -111 110 -112 8 0 39 -29 68 -64 41 -50 70 -73 124 -100 l71
-35 -294 0 c-177 0 -300 4 -309 10 -13 9 -11 13 10 29 23 18 23 20 6 27 -17 7
-17 7 0 17 16 9 16 11 0 22 -15 12 -15 13 1 20 17 6 17 7 0 20 -17 12 -17 13
0 20 17 6 17 7 -1 21 -11 8 -14 14 -8 14 19 0 14 30 -5 31 -17 1 -17 2 0 6 9
2 17 11 17 19 0 8 -8 15 -17 15 -17 1 -17 2 0 6 19 5 24 33 5 33 -9 0 -8 4 2
10 13 9 12 12 -4 25 -17 13 -18 15 -3 15 23 0 22 30 0 31 -17 1 -17 2 0 6 9 2
17 11 17 19 0 8 -8 14 -17 14 -16 1 -16 2 1 12 18 10 18 12 2 23 -15 12 -15
13 1 20 17 6 17 7 -1 21 -11 8 -14 14 -8 14 16 0 15 30 0 31 -10 0 -10 2 0 6
23 9 12 30 -18 37 -43 8 -37 23 13 29 23 2 51 8 63 11 17 6 22 1 33 -33 10
-35 16 -41 39 -41 35 0 78 23 74 39 -10 44 -10 161 0 161 21 0 48 33 48 60 0
37 34 65 110 89 80 24 93 25 130 6z m-3686 -118 c-2 -7 6 -29 19 -48 l23 -34
134 -5 c125 -5 135 -6 138 -25 5 -28 30 -53 56 -57 16 -2 20 -8 16 -28 -2 -14
-4 -45 -5 -70 0 -43 1 -44 38 -53 49 -12 63 1 72 64 6 46 9 50 29 44 11 -3 42
-9 69 -12 54 -6 61 -18 17 -28 -34 -7 -38 -19 -12 -34 16 -10 16 -10 0 -11
-22 0 -23 -19 -2 -27 15 -5 15 -7 0 -15 -21 -12 -20 -28 2 -28 15 -1 15 -2 -2
-12 -18 -10 -18 -12 -2 -23 14 -11 15 -13 1 -19 -21 -8 -19 -26 3 -26 15 -1
15 -2 -2 -12 -19 -10 -19 -11 -1 -24 16 -12 17 -14 2 -20 -22 -8 -22 -24 1
-25 10 0 12 -3 5 -6 -7 -2 -13 -11 -13 -19 0 -8 6 -14 13 -15 10 0 10 -2 0 -6
-7 -2 -13 -11 -13 -19 0 -8 6 -14 13 -15 10 0 10 -2 0 -6 -7 -2 -13 -11 -13
-19 0 -8 6 -14 13 -15 10 0 10 -2 0 -6 -7 -2 -13 -11 -13 -19 0 -8 6 -14 13
-15 10 0 10 -2 0 -6 -7 -2 -13 -11 -13 -18 0 -7 6 -16 13 -19 10 -5 10 -7 0
-12 -19 -8 -16 -24 5 -24 15 -1 15 -2 -2 -15 -20 -15 -20 -15 0 -29 33 -24 12
-26 -73 -4 -46 11 -89 18 -98 14 -8 -3 -18 -19 -21 -35 -6 -27 -9 -29 -68 -35
-33 -3 -124 -8 -201 -11 -77 -3 -162 -8 -188 -11 l-48 -6 16 38 c24 58 58 105
69 94 5 -5 21 -30 36 -55 l26 -45 42 31 c47 35 51 48 21 75 -12 10 -39 49 -60
86 -33 56 -47 70 -88 90 -73 34 -75 45 -66 266 4 103 10 214 14 246 6 57 8 60
41 72 46 16 50 16 44 1z m4046 -189 c17 -29 72 -135 123 -236 76 -150 95 -182
112 -180 37 5 95 -161 67 -195 -19 -22 -48 -112 -50 -154 -3 -38 0 -44 29 -59
60 -31 142 -55 149 -44 4 7 33 -2 81 -24 l74 -34 -467 -1 -467 -1 5 28 c5 24
0 34 -26 55 -17 15 -38 27 -46 27 -9 0 -13 4 -9 10 13 21 -8 62 -39 75 l-31
13 35 6 c19 3 72 8 118 11 l82 6 0 -26 c0 -40 68 -105 109 -105 24 0 34 6 46
30 8 16 15 36 15 44 0 20 -39 56 -62 56 -12 0 -18 8 -18 24 0 13 -3 32 -6 41
-6 15 1 16 63 10 42 -5 73 -3 76 2 9 15 -9 68 -21 66 -7 -2 -18 10 -27 27 -8
16 -27 36 -42 44 -21 10 -35 34 -59 100 -32 87 -32 117 0 50 21 -46 30 -39 13
10 -7 21 -23 42 -37 49 -18 9 -25 22 -28 51 -4 43 14 191 25 209 7 12 9 17 11
50 2 15 13 17 87 17 l85 0 30 -52z m-4351 -206 c13 -75 16 -177 13 -430 l-2
-174 -57 -59 -56 -59 -206 2 c-113 1 -183 3 -156 5 l50 4 0 122 c0 96 -4 129
-18 154 -9 18 -17 39 -17 47 0 8 66 76 148 151 155 143 243 239 262 286 7 16
16 27 20 24 5 -3 13 -35 19 -73z m1514 -539 c-7 -2 -21 -2 -30 0 -10 3 -4 5
12 5 17 0 24 -2 18 -5z m-1297 -123 c7 -7 14 -18 14 -26 0 -7 8 -18 18 -23 12
-8 -20 -10 -113 -11 l-130 0 54 31 c29 17 72 49 95 72 l41 42 3 -37 c2 -20 10
-42 18 -48z m396 74 c131 -7 135 -7 117 -25 -13 -13 -19 -34 -19 -64 l0 -45
-196 0 -196 0 26 31 c14 17 26 35 26 40 0 21 -22 50 -43 59 -28 11 96 13 285
4z m-1130 -69 l-4 -65 -111 0 c-87 1 -108 3 -92 12 11 6 34 23 50 39 39 36
114 79 140 79 18 0 20 -5 17 -65z m1028 -1230 l0 -865 -860 0 -860 0 0 865 0
865 860 0 860 0 0 -865z m2407 3 l-2 -863 -862 -3 -863 -2 0 865 0 865 865 0
865 0 -3 -862z m2401 0 l-3 -863 -862 -3 -863 -2 0 865 0 865 865 0 865 0 -2
-862z"/>
<path d="M3260 2215 l0 -145 75 0 75 0 0 -460 0 -460 -75 0 -75 0 0 -135 0
-135 345 0 345 0 0 135 0 135 -70 0 -70 0 0 145 0 146 121 -3 122 -3 48 -122
c71 -181 70 -163 0 -163 l-61 0 0 -135 0 -135 350 0 350 0 0 135 0 135 -85 0
c-74 0 -86 2 -95 20 -12 23 -110 289 -110 298 0 4 25 18 55 31 60 26 139 96
178 158 50 79 69 158 65 263 -3 82 -8 105 -36 164 -43 91 -88 145 -163 195
-122 81 -118 81 -740 81 l-549 0 0 -145z m961 -154 c110 -69 129 -206 42 -302
-53 -59 -104 -70 -299 -67 l-159 3 -3 198 -2 197 188 0 188 0 45 -29z"/>
<path d="M5690 2205 l0 -155 110 0 110 0 0 -430 0 -430 -110 0 -110 0 0 -155
0 -155 710 0 710 0 0 255 0 256 -147 -3 -148 -3 -3 -97 -3 -98 -264 0 -265 0
0 150 0 150 76 0 75 0 -2 -97 -2 -98 122 -3 121 -3 0 326 0 325 -122 0 -123 0
2 -95 2 -95 -75 0 -74 0 0 150 0 150 265 0 264 0 3 -97 3 -98 148 -3 147 -3 0
256 0 255 -710 0 -710 0 0 -155z"/>
<path d="M9150 2306 l0 -64 -64 34 c-100 54 -200 76 -341 76 -145 0 -238 -22
-355 -83 -96 -50 -178 -128 -217 -207 -25 -50 -28 -68 -28 -152 0 -84 3 -102
28 -152 33 -67 105 -136 180 -172 29 -14 153 -55 277 -91 129 -38 244 -78 270
-93 60 -37 93 -87 86 -131 -13 -86 -81 -124 -221 -124 -175 0 -260 50 -285
167 l-11 56 -150 0 -149 0 0 -250 0 -250 150 0 150 0 0 54 0 54 77 -39 c104
-52 202 -73 338 -73 133 1 219 20 332 74 150 73 254 199 269 325 8 66 -11 184
-38 243 -62 132 -232 223 -578 307 -133 32 -165 51 -181 105 -23 75 23 128
130 151 123 26 300 -43 326 -128 6 -23 10 -23 156 -23 l149 0 0 225 0 225
-150 0 -150 0 0 -64z"/>
<path d="M501 2766 c-52 -29 -50 19 -51 -1154 l0 -1094 29 -29 29 -29 1097 0
c733 0 1103 3 1116 10 51 28 49 -13 49 1149 0 816 -3 1086 -12 1106 -26 58 27
55 -1150 55 -880 -1 -1087 -3 -1107 -14z m1969 -1151 l0 -865 -860 0 -860 0 0
865 0 865 860 0 860 0 0 -865z"/>
<path d="M930 2205 l0 -175 85 0 85 0 0 -440 0 -440 -85 0 -85 0 0 -150 0
-150 363 2 362 3 3 148 3 147 -86 0 -85 0 0 89 0 89 188 4 c169 4 194 7 259
30 213 76 353 271 353 493 0 188 -105 365 -271 458 -117 65 -132 67 -636 67
l-453 0 0 -175z m821 -186 c67 -23 119 -92 119 -159 0 -43 -33 -104 -72 -132
-30 -21 -45 -23 -170 -26 l-138 -4 0 166 0 166 114 0 c62 0 128 -5 147 -11z"/>
<path d="M10088 2751 l-33 -29 -3 -1087 c-3 -1187 -5 -1137 54 -1164 18 -8
321 -11 1115 -11 l1091 0 29 29 29 29 0 1101 0 1100 -24 28 -24 28 -1101 3
-1100 2 -33 -29z m1990 -1133 l-3 -863 -860 0 -860 0 -3 863 -2 862 865 0 865
0 -2 -862z"/>
<path d="M11550 2306 l0 -64 -64 34 c-98 52 -201 76 -336 76 -142 1 -224 -18
-346 -77 -107 -52 -189 -127 -231 -213 -25 -50 -28 -68 -28 -152 0 -84 3 -102
28 -152 33 -67 105 -136 180 -172 29 -14 153 -55 277 -91 237 -70 299 -98 337
-154 28 -42 29 -76 3 -119 -32 -52 -95 -75 -205 -75 -175 0 -260 50 -285 167
l-11 56 -150 0 -149 0 0 -250 0 -250 150 0 150 0 0 54 0 54 77 -39 c104 -52
202 -73 338 -73 133 1 219 20 332 74 213 103 303 271 259 479 -42 197 -194
297 -606 396 -133 32 -165 51 -181 105 -41 136 180 207 361 115 49 -25 100
-76 100 -101 0 -11 27 -14 150 -14 l150 0 0 225 0 225 -150 0 -150 0 0 -64z"/>
</g>
</svg>
